<mxfile host="app.diagrams.net" modified="2024-05-10T06:31:17.164Z" agent="Mozilla/5.0 (Windows NT 10.0; Win64; x64) AppleWebKit/537.36 (KHTML, like Gecko) Chrome/124.0.0.0 Safari/537.36" etag="JXHK44Ig1ylnXLPCayFj" version="24.3.1" type="github">
  <diagram name="페이지-1" id="fLnjcSrFbkhV-4uKeBAP">
    <mxGraphModel dx="746" dy="600" grid="1" gridSize="10" guides="1" tooltips="1" connect="1" arrows="1" fold="1" page="1" pageScale="1" pageWidth="827" pageHeight="1169" math="0" shadow="0">
      <root>
        <mxCell id="0" />
        <mxCell id="1" parent="0" />
        <mxCell id="ee6hzXKFvY82W5kVaRLl-5" value="" style="shape=image;verticalLabelPosition=bottom;labelBackgroundColor=default;verticalAlign=top;aspect=fixed;imageAspect=0;image=data:image/png,iVBORw0KGgoAAAANSUhEUgAAAJ4AAACXCAYAAADkiuKzAAAAAXNSR0IArs4c6QAAAARnQU1BAACxjwv8YQUAAAAJcEhZcwAADsMAAA7DAcdvqGQAADFcSURBVHhe7d1nrCxJef/xgV1YWBNNTianJSxhTcYs2eQcRWZBtgAhI2Piiz9gGRAITHoBAmyRRWbJ0SZnkXM2aQk2BkyG5X8/ffjeLR+fe87lzp4zM/Y8Uqm6q6ueesKvnqqu7uk5xe/30WxNa9pjOuUf8jWtaU9pDbw1LYTWwFvTQmgNvDUthNbAW9NCaA28NS2E1sBb00JoDbw1LYTWwFvTQmgNvDUthNbAW9NCaA28NS2E1sBb00Jo6d9OSTz5KU5xiuk46vzEE0+c8lOe8qRxpH7psMMO+0PpahB9yE2fdHQebVWGtHOttMy0EhHvd7/73ew3v/nNfoBlcLky1zse6yjv2qpQOmzWpVR5OlUnG62KvisBvIzNqGgc8cqKDDkkwytzLeesAqVjOqVPOqHf/va3+3UqymuXnVaBVmKqlTJw5x1HjgOaY6NfOvzww2enPvWp97dfdgKqQERm8m8Gl6VD+kqoY9fH8mWllQAeAJ3qVKeazh0zKodEyjiMQ9RLpRyWs1aJ6CDRVU4HOqIjjjhiyhEwSgYX+vWvfz3ZYNkH2spEPIZPVCDKIQztPCByzi9/+cvp2p/8yZ/8UQ5YlihB9gYToptEPiBzDfiSt3p0VVZaZlqZu1oGL2oBG+Of5jSnmcocF9UC5Uhj2+1oWZy12SWARUfyiWZ0UecXv/jFdN5swAYNtDXw5iTiMTqwiWAM+vOf/3wytijwX//1X7NvfvObs09+8pOzj370o7Nvfetbs9Od7nSzC13oQrOjjjpqdpnLXGZ2wQte8A/ctqdlcVb6fPrTn5597Wtfm/3kJz+Znf3sZ59d8YpXnF3+8pefnf/85590BLRf/epXsyOPPHJqN9plDbw5KeAxZAY1lTLwD37wg9kb3vCG2fHHHz/7t3/7tykSnPa0p51ygLTuudrVrja71a1uNbvqVa/6B44HpmVw1nvf+97ZW9/61in/4Q9/OOljWgUwep/tbGeb9LnFLW4xO+c5zzkNyNZ8Ijt7bRX1l41WZo3HkEY4cmx0P/OZz5y9853vnP34xz/eXy6pD6xy0UCEuOtd7zq71rWuNfHgIFPS5ul3t52lbzLVr2OAkgOPiP2c5zxn9qUvfWmaRpWPESzZ1b32ta89O+6442ZnPetZp2s/+9nPJl1bViz7zcVyS/cHYlgjmzEla54Pf/jDk6P+/d//fSoT3RrpEmdJooRo+La3vW2attRVzokBGWmz25Rs+qUDnQCL7KZXkY6MQEdO1+Soczqaej/xiU/MPvCBD+y/sVCObzZYdlp64DGikS+Cdf79739/9u53v3tazyFOUWekjO8aR37wgx+cfeQjH5nKlQU87USJEYS7RfoCFDKkF1kcf/zjH5996EMfmiK5gVHUSg8ySsh1yww2OOGEE6Yy4E2H2iwzrUzE4wjE+N/5znemyKCcweWbgYeU5wRrvs997nNTzvmcmmO13ar9yU2AUYTSNwA5/+lPfzr7whe+MEWyykfQJV/AMtWyx9e//vX9gw+N+i47LT3wAgSAFZl+9KMfTZHBdkoL683g4YDAxZHWP6KE9aDoWUSp7l44TH+mS0QXMtBHRHYjQc5AJ40yqSfRUTv2qJ2y+KHRDstKKxHxGJIjyjlApJC2MnJAknKiBHAW8yh+He8V8AAr+SsDmgYVGuVPrlE+clsflipD8Vh2WhngSQHk9Kc//XTsxiHwlaLNjgO4M57xjFOU5PxobLPbpK+AkQyB8QxnOMN0DQC300VSR7TTjk7KAvSq0EoADzEqJwGavSwGb6raylHl4/H5zne+qR0+lUnx2G1KTv2PMhhI5znPef6bPlEy1kZyru6Zz3zm2bnPfe79PMtdX3ZaGeBFphbA81TCOgcQRYCI45xzgPVU189xjnPMLnWpS00bslFODRC7TQEIJbMyMl3ykpec9EIiOT1QOaBpq51kbcsG5zrXufbXWQXARUsPvNFZyPGZznSm2fWvf/3ZhS984QlcASfwdKwtoHLS1a9+9dkVrnCF/+F8yfnYx27RZl0Q0EiXvvSlZ8cee+yk2wi8dNJWIq9p9bznPe9kA1FPOcJ7tMMy02H/bx/94XipqTtRQGNoDjrLWc4ybUG4BmDy1nDWdOr3jPM2t7nN/uiQEzmYkwJeDtxNChjkIJ+ILLnrthRw100XdeRkIhvd5H/6p386u8QlLjG78Y1vPD0OxEPddBqPl5mWHngMiTiKg1pEM6x1kRGvDAClyDR82ctednaDG9xgdr3rXW92kYtcZCoHSPURx3Kcc07dK6IHOciof3IYUF6C8EKDweK6jfJ0ZgeDzSC6yU1uMkVvgwyR3XXREL9lBx1aiYjHoBzjeSRnMXR3dX/2Z382gQ/oPD5TLjp4hmkqus51rjMBtEigrdw5AOMb6HbbYQ0i/QQox+UA6EbDw391v/3tb097lkBouXDMMcfMbn3rW09vqLCDzXBEBzqjvdJlXtq7YX6IxAEZ1XTEYchrQU0z7lRFAw5AjO66GwrlgKud8iKC8/EYCPeCyAscbijqs8FQBCO7Gw36JjPgmWaVx0P9bpac079petlp6YGXgYGPYY10xLicwtCiXFNtgCrlEO20KVXWdXV3m8grofrtPLmUk8WxSEcf9ZR7WuPxWgNFvdqLmki9VaCVkJITxpHM6IDoXCTonTXGZ/jqc9xIyjlNWiSJwJuJvEAVsAyKBoslhsFlALqhAkQ2GPVQTxrBvMy0ElMtIwMXpwATw2ZgAOQ0dcbo4bjIEdiUASfHB1zH2jrebQosRSV9ApQcyEyxpldy07Mob1Cp4y5c1KNv5W290ANARzssM61ExOMIzuIYDmLYEgcoU2ek0fiutYBH6muH8B3r7ibpJznqE3iQc7KMcjpvUCSza6MNHNfuj/1x0yJp6aXMwFIAdByN1ys/0PXO47E57TZt7ku+lT5bUe1qU9moy2Zey0yrMTzW9L+O1sBb00JoDbw1LYTWwFvTQmgNvDUthNbAW9NCaG7g2bhsJ95+U/tOysZcsilqw9QGaO1sqMq1Q22Gdq6dOiOv+pBXbyfa3K5+bdLGo3Jp5Ou4jeo2cW3WSo6VudYjLn2gzX11rp48PUfZdiL1yCJF2pXqp3L14z2eS+RIh1Hu6pcnZ9ecz0tzfUlA0wS2uSmX7CURzr6bnGL/+Z//Of0iytMH5d7C8HDfg+9262sXj5IyG6QMZcM13vp2Hd9XvepVsze96U1TP8q8XnT3u999+noA0iZ+QCLHgwPl+OPX2y0MLDkObHJ1Skhbumsvp4tEznSyv+a8jV999JKApFzePhz93//+98+e97znTT/JROzlTZvb3/72+78eoF22olM6tNGM8B3t6Zwe//Ef/7H/V3fa+c2H5E0fG/XK2IxM5R3jp495aC7gpRRKMecSITkNKPzq3Udovvvd7+5/0ZGCF7jABWZXutKVphcb+y0EnpRGjnMe0m50Us73OtR2wCOPujlG8twzWclk5P/0pz+b5MXPACmqdQwwtecAFGgPP3zjjROgA5Ief8kNLs9YvSnjmicM6cVG2qe7XPmBgHfHO95xem0KqUcOvAyMgOj8978/yR8BxzH7+ESGH7f7Xa7XrrRjD314z++YY64w9ZGt84P29Vs6VJoLeBxQ59gQjpCVU8xnGfyK/zOf+cxUp5HOGAwOdAzqozpeY0IULoKqh1dgRIkcH0B59atffUDgOY+X0U4GZV60BKovfvGLs89//vOzE074/hQF8POuW5FPu2R3XEJ03kgbkUx9TpbowJle7ORIrzR5y/hiF7vYdCypQwa89Scyansg4N3hDneY+NUHW4/R5yT7bzxCdKyMjAaVz17wiUBgIGubDGYUv0u5xjWuNr3L2Muz+sm3nbOHskOluV8E5UBEEMeEcwwAotArX/nKyZmAUxQALMTQrlHaNc4RHVKIc9UZlXRc0h8jcDgHffnLX56ApVxEvdzlLjdF1dop1xcZRd+3v/3tk3y+q/LZz3529q1vfXuagjgAXw6RIzlwkEPKYaXDD9/4kbXIATz0Jb9IyeF+8S/S+PSYAQncwIQnAGgz9qe+mUJb5LrB5LNrpkS60Ak5jvRJv8MP3+CVrPwBdK973esm0CGyir58InfOll/5ypcnHmzHLwivzf0l66HQXDcXOiaERMEAYZR96lOfmiIQJ1KsFzUZRn2KAgdn+XzDm9/85snQHAU8EuUDnAjUNTzwldTZicjEufolC+c//vGPnz3jGc+YorHpJoDTCWgkfXcsZfjNlN7kIV+86Nt0S18gc/0973nP7J/+6Z9mT33qUycwBFQy7qQPvvgDiP6Qc1Ntn+eoDn7VNeO8/vWvn3JyNUDUZdfAT3983vKWt8w+9rGPTX2wm3qu5fP8cqh0srz6TpCEQ0bXa17zmtm//uu/Tr8Eo1iRhIEJT1HG4hDnjgFK7pVv30bxjRRfUfrGN74xTYeiFArE2jGANttFvOTjlH/5l3+ZPeUpT5miTxEHODhClKAD2cjKaUhfknPASE/keCOdOEUivOKR47XRPyJvA45eoh99TMHKcuyBIp7fkegHqa8vdQ0mA9gxO3z3uyfMvvrVr+6LXl+ZdPVlLVEdf1M8/ejEH+wOnORVdoYznH5qqx9Tr/U3mZIt/dPpUGjuu1pEgJNC/OGTog95yEMm4a1HKKVOIHMOBJSM8MpZ8SrnTAQkDHGXu9xlWidxBh6Avt0aD299WtO94AUvmNY4RjWD4umLS+Q64ojTTvk4mvEqdT7m2eD3v9/YGiIvHiX1lEmuKwM0ehqM2vvxzn3uc59pqaFvZQda493pTnea1sJ4GWRA5pt6QOomSVt9nf70Z5yO9QOgbKUNeehMDuBT13V+c31jwP1qGswG7aMf/ejpNx7qaaudY7zniXpzTbUEkBCQGN0Eso4Sqfz2k8OVu84IFHNMgaKIY6CkiDJ3gNZ6gIGHawzPsAzse3eMpUz9QHAgcj3Diwr6xzeZW/ibEtVT3zX15RnceWXlHUvkL2ohtkDKOTYHe0Uf6PTp3PQnUpFlJ2JvfTVoDW7RzEDy8016+XGTwQpg6SSis6tygMWDPM7pp4xv8gU+3/ve9/aDOR0RGeg9D829xsvIGZdQyigFaBSjuGvquEYRRqYopSV1tc1xOVzOaAwjUmjrWF1JnYMhdZGRrI0cH/wDiGMykYUM+iWPtjllq/6UJXNyS9rhFaDYQGITvJWrI1fGPjuRfvDQT/y1Ayo64UUf5WSuT6BRX936rC4KiEBHdm2R+upkp2QO+IdKcwFvpAyCCO9nh+5Y0egwdYxEgqdcpB0HUJDC6jKm9qgcZTAU7wORuoxlbfUXf/EXE19R2TIAAESL0Wnx6zjdHI8JjefqBB79IeX4cKzor1919O2mBvlhtk1hdTh4J6pvlB3ImLz0oBc766sBxN4NIPIlo2vsrryo5q5b5DSr4Eu39MsW89BcwNO5RIEMgEyRFvaUkAhLKQZpfZdBAFDkkdvLu/e97z273/3uN3vAAx4w+7u/+7vpXFsp0tfY305ERsa1WPbt4KOPPnoCuZseQCgi6yMDp5eUsev3QCkejnOqMropxwcYAM6gVO5mgUwGxajjwVDOr//6uN3tbjf7m7/5m9kDH/jAyY5seI1rXGPqmw/kEtnYnh20x6/IRn52Mss4TrbqzUtzAS9K0Mi6wi/ebQ4TuGlhdGAKAqLcXR3gXfe6152ikmM83Exohw+F60suHQxppz1Huym5853vPLvZzW42yWlKEvHIo58xjX1KjrdLyeV4Mx8JNcUrd1PhBoidDAy20faPJf1K2tLRXy24IWBDtvQlBd+OcbOgDzant7r61Y7cbCCpc/GLX3x6qmSwptNoh3lpbuCNQhGagUUQXz+64Q1vOBmEsSmrXsBTXiTwVXZ3n20ViEZuLoR5vHJgCmeA+j4YUhfhB8yAd9vb3nbaoecQsrsjtvAXAZp2yWl6Sv7tUlMZXtrigReeFunO3W0Dgqjkey4eURkAgROfg6XqklF/2rOvaZMd2VAuAbeol65sn03yAz9JygUAHxLCa5TJsf6keehk/YQFgRvhQrnbfo7mNHtwhXRTbU5ikJvf/OaTUSyQGYVS2qlnq8PWgiiBjFSjWTt9ZLCdnlzgiTf58G3v7KIXvegEfGvSc57zXFMEwMMUjK/+tJOUJ/f/TBs3Ki0n6Oqc04GNzKKOLZFrXvOa07k1FPnJpK7jnHygfTxgAFRED4/62Ifc2hu0f/7nf77vrvR8+9psfMZNYit30eQxEOw60I+8bENe+pkR/vIvbzgFDfIFSn4jm2PkvONDoblfEohiw4gRYzKcHXAPpW0MU47AHG9B3b/VAAp+Eh5GLqcD1OMe97j9DgCIe93rXtOfjGijrvWSR1/b7ePhNfJ1LHEKmYDlxz/+6cTLNoLtDlFKf918SAemjf3G1k+iNfno6EaC0619gYYzJaR/MsnJTSZ0MC8JAIv9y3/8x3+c+OKjn/vf//77Iukx++Q4zT4fbGy/4Is/nWwk+7sGWzHsRV6yk08EvtKVjplkxi+/8ov2UmULAx5goYQZRwMymigsIlhQu1OiuPqckjOMVm0oh4frcgCxx/WEJzxhAp462ge8nuvuBDx8gYuzgV+/bmxyOtLGg/V92US/+c3GXWjTJNCpf2DaWDrgCwQii7w1FBnYKzvhJYrh6wlNswMe6m8HPHXV0dbz8Cc/+cn7Ae2aG4rLX/6K++0qbei3IYe+gVZU5RfttBcM+OW0pz1iqsc2+SM+Iy/pUGmuNd7YeTnBogQ1ooRtazjTjWSdZVQxdnyAaAQvRwGvY8YK6GjsWzuGqm71lXUuAe8rXvGK6eUAj+ScV0d+4onamOpNyT78c+Q+uc81O+qoS0yvCl31qlfeJl11+poTvUzhBhSHbqZRFo+zPMJ7+ctfPi0pDFByILqmr7Km/BEIzuX0R53L6WIweKLCpBtmxduMYuCfcXaZy1xq38C85iT/pS51yX1y2z7Z2MfDZ6RsjUbbHyrNBTxGGBNhxnOgyigUkRK4860U1DYqImXUeOMbb6RMW/Wqi+TK8RENPT/22Eyk8LDeH5uYckQ1zh0BW3vn8dwuNTj0N+qpHKhET89nvR3iv8pe9rKXTbK8733vm66pizYGwTggTrpjjbekL6ScLQ6kN9tUvtlulWdz547zHR5Rdh/LDpXmAt5eEWUpLaU0A41OMcWIoDnDOsi0gVzPaJwEaP58z/T83Oc+d3K+tzG8KeKtGtGwx0WmW6ARTXcifatrGgNyUUxfgAZcnhG/+MUvnqZQfevTzYEZwbTI2eSkm2WEJQGZ8bVWdAMESHROT7qN9hlttMw01xpvJ8L6YNgzVPUYDjm3LrPGedKTnjStR9Tj1Hvc4x7TBwo5hxO0EUne8Y53TDcy7ux8T9idsrWWOqKOqe0f/uEfplyZBTV+nG59Y51jLZXTORt4lfckYDsCztaF1k6ta92oAKJyNyrq6ZN+gOrmyg2BFy/1AVzqiYoitPbuZt1p2qNjG8DDz7r2Wc961sRPmSWNDXg8x60Q+qLR1tuRerXdDdp14O1E6ozG2Ap43p1zU+CaMjvx9uAARD2ObArgSGUcKAc47TjFdsvf//3f738bRRsOFgUl9U2345SLp3qBczsCYsAjj7YAJIppm3zkcJ18cue2fDxpADwA1w6pjye5gJ9Mkjr4i8git3+xpA9+Ij1e7k63A17l29HB1DlUWompNsoQDMeQcmlcx8iBqHqu5UjO57iOgZQTRch4AASAiXimb0nkU4ejt0v61daAsCdZtFROXgl/fRtAzvUL/ChwAGM3E66nj2NAjhfKJmRfJdpVaRllp3QwxOASh0mMLNfeMScEKNGFo4osrgOgc8ccx6n4OZeKVEUUSR3AVG7bAlDw3S7pb1wT4qPfEp76Ii+ZtEmuwOQYyelXxFQPz+pI2QWf7FL7nWj0wYHSbtJKDBNOGolRlOUs5wzuOKfnmEikEYlMazaFJdc5VXvOq37gy8mcr/1OpI7IGE8ySkDRGlEf+CnTh3UamchmPapcIo++AQ7o0wkpyyYBpJzMq0AL/+o7A2Y0NB5zjMW5Fx1NZUBls9jfKJnCHLtr9Fp8r8h7SRRPjhwdlTPx8L+wRb0cq67EccnkXB3JubryAyV9aFu0i5dc2wDjmv4BVB9+OebxHkBqOxL9bKJb43pNXqKnR5DuvD1Wo4++Eb093PdSKH3JhfSLOi9fFO3qzcXB0Nh9o5URHZviGP5pT3vatMXBWTkPuQ5IgaPp0LNXD+Lt8lufqSPaaIuvPTy/CQFW5xyuveMSClCHQvFAeNBJHijJSs5b3vKW05+lWBvSK0Cakl/4whdOG95e2XctcOGhTpFTNNUOeYbtyY6XNNyh02scMNGh6nVy0cIj3miQACUKOOYgWwlAYjvCNMZBjJ3Bm55EQE8L8DKNIo/N7O0BI7KId6dnS8JrP9q09QEI+uMk/Di2iKScs5VvRzl/bIuftpLrAOm1cm/F2Bay5UMvg4OcknWiLR9PWNyJk9PNCn0BiZ7s4BwBmP7oIOEp4iVDds3W2XuRtHDgbaYMw1icZuTb1DWtBg55lGM5DDBcc25bwVsaNl2RcnU4Dn93nKKCX8Gpm1MBQySVACUwkkcqIh4oNWCAR5/KAEcf3oTxupEoB3gAKBIDB9n1J8eDvvT2HNf1QCyRXx8NCO0MNuUGm3fwGnDKRkqPzeV7TQufalHGQAwicZgo4Jnmy172smn0239DrgGKeoGxaYeDTK9ePfLOm4U73trEtyjAifrAQ2S1njSt6Yfj2/jtDRXrzO2oFwNEoLZVyAJ0tmU6F3VFI0BHyTTKZk13/PHHT5viZEpPOjRAAEvdIqq1r7eZ6T2+0qSuehLCY6fovdu0FMDLMAwiVdaIBj43EKIIUtZoVk/OwIAk53xOADqALDoAKwcqq238XHcuiSAiHrBJ+o3HdsSZ5NIPGaRA5po+gSZAJIP+yGQQKHedTNa1bpb0n32QY/XwLKpqYwq2bgTyBqI26qebc22lRdLSAY9BHDe9OVcu6gS2phsJqZcaGXW87hxoRA6PoUy/nhKIQIAw9iUhjpcQBybjdqQ/7fFD5JVQjkfJJcL6DbLo1ouhAJMMQNVgqs1IyhsMZCRf67qodq7Vf4BcJC0F8HI8Y+TkwOW8Ol3LEQEDaa88o6rPKcoCl4X6Yx/72Km+7YurXOUq+3/Bb60lUm1u71h7+U6mqo625MRL28pENhFUbip/17veNW0VqfPXf/3X02tjgKd+ifwBKeAop/tmkCmrvrrJ0Ll2ZBzbLIqWEnjOJQZynpERp3GUayJChtzKoHgol4DIHtiDH/zgaQ/MOkzUc4drWhYFRUDlUpu9OS4+2xEdJE7Wtz7JKFpL1oumTi88iHL259xRmx4f8YhHTB/k0V+g0X/AjX/XUNck7eT6VJ4M6VC9g9FjL2jhwGOcKKMoIxaHyxnTNKmcI01frjmXmoJrCzTu6jI4JwAshz/84Q+fbh7UU+6GwI2A+nLJ1gUQWjP1JEIfIuJ2ZI2mH8ka0c1INy29ndJNi8iH6AH4D3vYw6YtHkCJyNgbLRF9DESRkfxtw9DVerIXUNnCdblr8tpLyhZJCwde01mGaKQWZWynuLF497vfPRnZQlt5o70IiDIuENm9F9Es8PHUTqR75CMfOQGPc5Rpqz/kuGlXAjpgUyZx7HbUhjaZ8G5bxmBRHhD0Azzt37nrNSBs7eiHLbSjtxdVyc1OiNzayvFzTFZ9uGO2heQHOwYU+6iDX/ZtwGm/SFqKiMcZgIYYpTLJPtazn/3s6UVKxCHqMiTRA82oBrB5vd6rU5wQT9ObbUtTLmflQP1sOGSjPV6SdvEd+W9NJ9VNdim9OtafesAJZAaWaV7EAzygVM9jsZe+9KXTW9Km6QZo7R2zARnVZxdgu/KVrzy7293uNu3nIddH4DmXGqyLooWvMhmNEbciBmJQ2woiCKOPifEASFQqMnGK6cyNhKkOoJTpR1KH0zO+MscbwDsJPMr1ob5pTdrc/+ZEhuSpfv0i/IEdAQIwiVSBYqxniqW3aOecHHhXpz5do49oLPfEQ9v03kzjYFgkLVwChtgKeIzGeBxjjcPIAWu8BpAM3lSkTmu2HiVJnMvgrgGF9qIN3o5dKzIApJRzS+psl+pDGnVK5uQWwYCDzMlb38kratPBWlPf+AGZpB5e+ilyqe/cYGMX/aDN9nWs3qJpaR6ZMSQajcQxbipMN4wpWnCatYzHTZxSsqiWvMDpQbmpth99c1ZOshndD7+tsYCzaeywwzacGED0J1mHqbO9wzbaBDAUmAAHmLRXh5zKySBSecRlTUoebQOXpI325ARQj/rk+ClzzZ2xc7zdGOFlE3kcLNFo30XSwtd4dV/OSBmfY7z6/vSnP316BagF+o1udKPp97IMn2O1qR1nihaVc4h6yNrJZ2B9gtadJmC6rt/DDvufC+7N0eLAtDFdp0c0nicLuSwhRCk3A14WcCOUjOqRB+gNFNGxZQEZJJHeIOzXat2oGHg+1uOH8k3N6m+Wa3tddp8WHnMZZEwo4yKOYnjTopxxjXiO8pDfFoRHY/bCLM6VG+3am4KbijlA1LLo9tqQV5EAgGOLLPoqAbA0lu1EeOA1pqZtSVSy/rO9Qj4y3Pe+9510QMncJjN+gOQGiV70FOnldPcbXtG/upYQ+oyUZcfRvstAcwFvBMxOaTON13LyWMZgGc01RhUhOI4TA0XtRYemQ2WOtREJJHU4FE/gExX8tNGn0IC2iDI6Kxmk+O6U9HOghI89uwc96EHTTxz/9m//dhoseIuA6tDPVNw6tHZ4d+4Y2ByL7gBtdhAB2cF1bVBySeqXtqOxzXZpHpprquVcxmA4jsOqyOCccRDDZIhIPe0lkUdiEIZTVxvRzW9Sn/jEJ05RAn/GPe6446ZPWFjP6HukAGjkx9Nx5e3F4SWK6sddsN+3fvOb3562XGw0i4RFHm3JK5GtqDICYuMX+ye9sYwvwLceLR111FFTRNZGHUSu8spQNz4GHF2Q/uikHNj8fYCliGWHcmtAvzLz7BeIlZEz+2svjZFxM9GXLtKGbidt39TetXgeCs0FvIRAoxCUDVCIAY1oU6XNW9dNIZLR7ZyyjB5IHMs9y/RZfsBDeABev6tlAO2BFG83I5wgilnj5MzNamrDca3xXP/d734/yerJQtM7udsMdsdIJn3JER3xP9WpDpt0AWw85YBHFnL2wqpE5qZH7R03SJSRhT31bxB0QyVajpGQXAEPOLWzDPEhb18ZVUZWvFyjr370kY5uTPSvnZcUDObqKzeIOtcuUiYdKs19c1HzhCsRmkOAwQevLYLtS3GYxCFejPT7Tw/HUxgxagAUiR7zmMfsBx5gFPECHkf4ApJ39jz/5HAvAHgnD7gZm9HJ5FmpMjcfo/EA1N8w5XgypAcAuI6vvsglR+TE3/dIgFN79ejuWNIHfkhdVB8GihunNo8DFn19uMcTG+Doe4Oe5yJt9Qd4fhowAs8Pum0kkwPwyI43WfEyi7i58uq/yE4+A6WXZ90VO6Zng1Yd7aPsdqg013YKhRDjIgZLSYbhZB+k8eq6Rz8iBsXdTUo2O70WRDGKigp4SBRTzgE+bGN0K2MMd2wcYSrRN2DYclHPUwlgV58zTW/x059f3RsI5NQfw6INkGwY1jEj9289RS/HrRs5WnKNHKc+9an2lzvfAON/X+ijgGAgAMBrX/va6S0V0azBoC49/FgbQOgj6gEVncjANmzhsZof++iPzfXtA0L4KctHjoHM4PSCqQHNP2yH+MU2kwhrMPCHaVs7/SSXPBqP/1ia++aCshJKOOeUZDgj0ojmfI4QbVqbqW9nvnpGYMrE26iWO0eujwpXh7EAWx/qMqRyxHASp6jj8Zso4T8cPI7jXOs8YCUnqovkkBtQHCHfKiHt1R9JGaCZ2jj3+c9//uyhD33o7FGPetQ0KAELgPHWD/0Ahjz0MXVrbxDKUXZQf0z1nY3IZcCwj89dAB0ZTLVd15e2fGK7yWDgk9FvI+jqax46WTaQE0hOQKPIB3B8oIZSyttTMnKNekaWGApIGLnNUSAxxalnejaiGZwB8Ov7ykY+0p8oJqKZivE0DVtgd8dKBvV8OMegEHGB3q/YTNMix5e+9OUJ/L098vOf/2KSS99kCcBk4BB5cv7ylxtfAQV2bYHEjQq+1qkisv9M8yFFtnEtQNPbsiDwkVXkMUvkfPazpeLmxDIFkYXeBg4d8WMT7xriSTZ1yNdffJlh8FI/+6ujT/1nU3YQga37lPNdwFYXlR8KzbXGI8RICefBvv8JM7oIXxTKWdqpS3FKKwc402eGVaaekWoKBRT1AcEaz+drTZXINX2Jmuozqr0x/wDkCYb+OcH0ZftEdBP98FcuOT/yyI3pU/+mTQZ37th1TiGDCBKYyb/h4I1P0gJp4JMDo8HmnOzq0F17/AHL4BD9rHnxJpcvqL7oRS+a/iqKzdjHD4T8nsI0qg7e9HbzBUzK3OD43YWZJTnVM7UCn0FFF+Vk5xfHcudko6co7EOQf/VXfzXJRVc+QeyJFgY8gtQ5pR3LjSqv+YgsHFUXOYuj1BuvKWcojqYYIzhXznGmqa2Apz0HW0tyAhBqY6/unve85/Q4Sh2yiiKmOKOZ8ZUHStcZvcFDPqRPTi0SVEdC6knaSHiRUY7Uyy6us4EEgABtkIreJh4RTV3JjcU///M/T1Fcff0DlK+cAhV+Ac9/swExHQCv2SUZDQZ12RTRWSIDwluf+cU1YDdreGvGzBEv9Vyfl+Za4xECUbhIpoyCQJcBUoaCjJhR1A1cjABAopHIxCGigcRo2gIB3vrjXI7Ex7nkHC+58+RByrRH1ZfwLTK47jg5tdFfjrMkMIWSMdkcK2t7gg5soV864xlfPLOFvhEbVa82UnpIUbog5WyWPbUBZGXJZoAZbORTrk881Hcur1/84oMMTD4ERtfJrU7H0jw0F/AIKmUgxwRLOU7guIxDCUldxEEM4DwAqt91x+rjI3cuIlq/4MlI+OKjTQ6TM6hrSBmjA5B+GNV1FADUwaO+8QjsSD1l+lU2pmQZ21aOb9R1eXI3hedY5emg3LF6ymszOr29w+wD/PVbii+Qu6ZeeutHHefK8VaGX3WS6eSkuYAXETTgENyxX7IDDKUlSmQcimQcZa5zgLWVXX2/g/BypFt6uS0EYHPNxqhnlNY8OWMno7iejBbewNuI3wxackqOAxZSph79qlMKNEg7KbmkSJl+5PQVtYHLRxed4xGfnQgPSw3Ts28vWyeaGv14qY1guXPrbNEwH7E5vfBIH3lEBmXaqec42VH6zUNz3dVmKEJInRNUiHe3aDQqQ+oAXELXjvMZBigsaG1gcobNUskGswflNpttDFvs4oMvIwC4t1h63UkZoOLngXoEcCKENaibkECw2ejJi09Glo/XNlP1SihASuP1Eaz08hTGmrQIh9hvq/+5YA8DNDkMQE813ExJ1mPWjPg6lpQDEJ1FRG3pLjku0iV359raEwTozXZAyXooNDfwGFFOqASikHJbCdZGKKNTKMOPBEw3velNp088OBblGM+ozZBGtzu6+OhPXwcDPHWVi6JArr07N/t6Rd/0kJA69YNGQ49lpWxRueN4IHyV6VP08Y0TN0meMgBGfNB2wCO/vgxYfJolXA+ABqtcGRtob/vImnSUd5xeG8xmAzy9fqY/U3RtXE/P7HQodOgt9xFBCM0AEYEoSfEb3OAGkzLqpKBzSlZmuhHSRTkAM+VQiEHVFTE5xXmO0x8elR0MkbUFNoff9a53nf5WShTt0RuZ1AFesukLKddOn/XnWglv1xyrW308Wl7kLPqZGn0/xZ8et92jjesHQ2TIJtpVhrfyeCUbG1qeuMM3JSPl2dGUDVz0Jq+ZgVxs0yBNNjldpHlorohH+ATI8JSRmw6s84DHdogwr77zHEtZkc1LnYwiujFgBosvUh9v7aWuI1F1p4injFMAXR9GNGfYOwQ8/agTYJB+Ardr8kAlJadyCY+Rj4QHxxaVbIl4ziy3/kKcrZ/aou0iHmAgdckQ6Y8c+kRkdc5ucsDUl4hrlmAr7fXbvqM+fOLNu4JA6rqkfbIhx9odKs39dgplEcEafXJOdp3SPqvvJQFbDinMGUBnzcaY3akmDh4tgkcFXae063IJqLf7Zx/ntQUqPKP6Q7ZLPCnx2MiUZD1U4pgiZoMAkbnEsQYTYNDP+gvgOLDFPzuh9EAGg7ado53+Ukr7bJ8+5MJfcowf22Urx3SwkeyRmKUGe+GlDVnZy3IncPMV3fJBftZmYcBLcQJwBIGM3IxCScfCNbKvJCHGs15j8ESglHbOKeuYUxjWOeMVHTKmNn8M8IqajpUbCHIRZbMh04EMksiq/Qg8bZKPLnTlNPzqFzkms4S065gs2VCu7oGAZ3pmu5GP9mSSk8U1dsGHveTOq4+UA54Bpp0bFHwbAMror52UvvTEP5kPleZ+LWo7wnon9pSU5iGbpQcDvFUhNtsOeJYw21Gg3I4C4qJosb2v6f8srYG3poXQGnj/B2kZlh67DrzWcAdKazr5aSs7j2kZaB3x1rQQ2lXgbTXatkprOnlpKxtvToumdcRb00JoZYDXnqA9KhubNjTbyGyz1LFryp13vRQfm61tuKrftb0gMtm8TabSKGvHbXST0bHkOJnVo0f1V4mWHngMWhqJsSXUbj9qp30E3pgj+SKnm/omB+Cg9EvWjpH6BhrA0s31AIjUG9utAq3UVMuwRboRXMpcyyk5rDpInmOUR13fC6r/8dlqj6JGmdKjaIYcF/nIHOiKitWT188y00oAj5EDSIblHJHONc9ROVBZkQH1LDHnjiBUJuG3V87SR306lgAnShaJjD13BTrPpz3/rT1dA7C6En7ssRe6zEsrMdUydsZkfE5AlQU4RveQm0Nqo8wbFl2vPkdxoDqlvaL6AzqyOibbmJDr6Utm8rrm2DXnkmPJtUC47LT0wGNkxs/oAUpS5twbJl5bEulyJrB588K7gM5bS2mjbREkx+8F0SUQBR59p5MyUVoE9+KD17Sc99NF79F5RYu+SBt6ySW64bEKwDtZviSwm8SgjM4BjOw1Jc5zzhHeLfM9EL/v6CsFHMD4wKiNN5y9qgRkrgGl42ivHEaXqL7ohsjj2OvpPrHhR+x+U0t+srkGcHR27N05AwclvxQtO/h29bWok4MYlcF7p090YGAA83LpS17ykgl8HKeOqBfwvD/X60T+BdsbwNoCpCiiDvXlynfbWeRKNgNH3/QAIMc+p+H1Ll+I8uZxcqnrmNza+xGOv1LwypcXT0VIPNQFVJHU8TLT0k+1DA5QAJdRRSzfU/Fmsy8ucUzOk3MOhwKdNr6X4rslORPoAlrAk3abApFcvyOJZAAnevsBtjeYrVfpoj6Z/WSRLejsn7t9MwUf9RpwBuBe6DIvLT3wENAxbNMSY/vwjd8kmEI5BbkOaKbiIlrT8hvf+MbpIzja4iUaOi6a7BXpk4x0QvpHpldfaTJgAEkd1BvBBpsywDKgREfTMT2SvzqrQCsBPM4xpXACx/muG8NzEgcGyAORSGD958dAHBUv5driuVcEJGPEoxuw+HGPt6d30kU7Okts4HMfyuhDLzPCKtBKAI9hG9Wc5Hcbpk3lpe2oKc4PuftBc3eUexntIrIU6fRv7dZvUci6HRksEvLjKT9MKsrhtZMtloVWZqpF3Y2aKjkIeKSdwNMaqbtepA1eALBXDtNH/QQwEc7NE9m6896OyEpmesuziRzvvY7gh0orAbycFEhavzFwDtiORAjObe9Ou6IGPoDd+V4RGaRkp6NBsdNUqx6gBS43G4FRnq2WnVZCSkYFDCDjHL/BZXxljC1tR4DlrtEPxn07RX1tFxUd9F0UR8BjX87g2OnmIHBlDz9LZBPHylzbyR7LQEsPvICVQTnM7z99F0TkO5hoBbgcZP/LAjywAV7O2otIoV/96XcEhymWbH3RYDvCAzhFbjbwU0fno41G3stKSw+8nIUyuP0sXyCQKxujx1bkju/oo4+evlnCOdoENLz30lFF2RFgopXvOvsMr4GxHWlvjWufzzdgfB2UfnRC9GlgLTMt/SMzlDEb1Yjhnbuz66Yhh8rt5nOGqdU3Unz6wXdUtHG96DBGCWm3qT7rNwI4UdnzWTpZGjSFqgdszh375oovOR177LHTNK0OahCVlplWAniMaKRzFuM6Nj15Bmu6dS7qyRv5ogAH+b6bj9CIdjljM9gqL98twn8E3ZhQn5AweIrkBkkDyrdYfMLNR7gl+qsDeHhq0/Gy09I/q0VE3DydcgQQ2nT1MN1mqm+B2CB248FJ/lylb+yZokfK2eVoPN5ryg329Hz/mU42lYt8AAloorbPuYmO5DXYmrZFRbqvgXcyERGljMzgzkcw2scyvapj1Ns64YSmofLtgLYMwCuiA5FU5AMm0R0AETuMtkCjfZadVgJ4iJicIgGR89Z1QBawnKeSnNO0OVDEQ8vgqGRuMJEpucZj4DLIGlhI27HOKtDSA494gGPEOxbVjPrOEz+jj2XqKO8cbXbOsjgrGUdZgQyRcdQPNfikorw6jtN7mWkltlO6m2PQrQDnWKTIUaabHNHU5XizMzafLwORlz5kowN9K5fQaANl6eHc9Fy9ZablX4Xuo9HQppjOASrDK5PnBOXqdG0zVW/ZyKAZ5U1Oeeu3lg/ppxxli9osM63UGm+raWQrI6tX9GsdFC2rU0Y3AJC0GYQjVZ8+jsfzZdVxpJUB3pr+d9FKTLVr+t9Ha+CtaSG0Bt6aFkJr4K1pIbQG3poWQmvgrWkhtAbemhZCa+CtaQE0m/1/cVEsEDTG3iMAAAAASUVORK5CYII=;" vertex="1" parent="1">
          <mxGeometry x="300" y="120" width="83.71" height="80" as="geometry" />
        </mxCell>
        <mxCell id="ee6hzXKFvY82W5kVaRLl-6" value="" style="shape=image;verticalLabelPosition=bottom;labelBackgroundColor=default;verticalAlign=top;aspect=fixed;imageAspect=0;image=data:image/png,iVBORw0KGgoAAAANSUhEUgAAAOEAAADhCAMAAAAJbSJIAAAAflBMVEX///9NTU1mZmZXV1fU1NQzMzPu7u45OTk+Pj5OTk5gYGDc3NxJSUnp6elGRkaAgIB6enqnp6c9PT3Ly8v19fXj4+NUVFSgoKBcXFysrKzz8/OOjo7Hx8cwMDCzs7OHh4dtbW2YmJi+vr50dHQoKCgKCgq5ubmTk5McHBwVFRWKANuGAAAG/ElEQVR4nO2d6XqqOhRABYRECBGQURxAe/X0/V/wglpHRJBsk/bb6+c5tc2SkGFnJxmNEARBEARBEARBEARBEARBEARBEARBEARBEOSTRHPZJYDE8T1mBnkkuxwgWIvSNk3ONE1jS30huziCiXbrmNCD3RFGmW/JLpUgQifztIBe5H7gdO3ILtxg5rOy4IQ/2p0eJNE3sos4AHeXp+S53ckxYMmvbFmrismXL+TOlXU5Hcsuby/ms6SgQWU36eR3fJDpLpRd7o4scvtg90qp4AG/+RfKSld24TvB+BOnW4gzGieGefNVcOL9hspqdKuW5OBi7ab02pIRY6V8Ze1lWOMkOgkukjzYKz6e621YYW2m2uWt5KSYSSt+B94xrHF8PaD8p7LGmbqV9V3DUf0o1/znreTqTj4GGNZEfnF6K5WdfAw0rAgX1SSkHi8oOvkYblgTZfWoqJ58TJWbfIgxrAhn+aR6lOpNPoQZ1kTZ1iTV8C5RqbIKNayZ7Q2TLBUazwk3rHBXHv2KVZl8XBsyxngFPRIEV4GMXoYV4bjUzFyJycfRsGro49QuttO8TLLVbrOYjR3XtUKfv2lY4670QoEu8mhoP/nfQYY1s2Qj+0ECG1a4khXhDWWDhmioPmj41w2zv2MYWk3Mk1bDeeOHQBhsyMxmzgG1RkNv+eRjolnSwYYvaTScdlvIEYAhz5BReLhMQ1aM4cmZTEOvHlm3Eg3OVKm6LLmGRgvMyIfPnqQb6s+w01xIL6qqoZ1mgiJuahraRjagULcoaWjsBQbaFDS0daGjWPUM01xspFQ5Q2M1oDhNqGZoCJ9nKWaYil9dU8sQQFAtQwhBpQwNkLQThQxT0a3oEXUM7fWAcrSgkCHQkqgyhjAv4UgdQ3s/oBStKGMIlvytiGG6G1CIdhQx1AeU4QVqGKaAKQlqGAI+QjUMU8hcNiUMn63OCUEFQzsZUIKXqGBogGZAq2DoDSjAaxQwBG1nlDA0YBNmFTCcDvj7HZBvaMNM7c/IN4yB95JIN7RBu/uRCob5gD/fBemGgDPDI9INDehdMtINY+hdB9INIaeGB6QbAsWBL8g2DMWlJDxBuiH4phHphuC5tdINwTeMSDcEP+hEtuEIfBOedENw0PAFAw2Bp/cHMpmG2sSGx5Cayf4h0BANO/DEcNKP86/r+zlZht6y37ag5c8mI9ZzO5G0XUGR049ofarWdt9PDgmU3Bsy3nj4l5jdeeXpd4OHBa65Mwz0Mo8pkOE8PxmmwzfSdOfO8FAdVkSw4Xzmr3UtOL+Hmrk0abzdrz5xmM2NIT0tIu0enuL7huEinywpr8+Tum5Ljy8EMXUf2vLakJ8Xq2NRhs6a09ZT/RgPYh+0yl4bXjT296V6z9Ddki6HFlIOmQdwZThZnitMIsRwR7oOemgMt8h6U0vPKxDFfdHeMVyYHf20urKKlLrhpqX5WSeLHhrTdwy7H4daf7u+UK0rbgz5caHMemho3jJ87HNaYGCh89v+kNubyPEbDmx9x/ChqrdBwPI57kdtdGk2NX9vnaLUcF72MyhcwOdh5D1pfH3eakstvWNFZWYpXOwMxGlmFzZGhw6DEw8y1wHWcDSaTXnbQcyMBkYCuy4gwrA96h2OE52a9cj0WrQ+Gi4wNW8FfuzpYEPL33SI67uLrPT0mFFSEXAtLdbJavyRKdQwQzeLt7LPY3vFAEM3079i9U/medfQ9fWAUOCMNiG8Zegmtsm5KXjPNhD9DZ0kri9RIIWqhz/f0dPQKePDpJZObhIUdrxnjLdTHFjMYHwSdLo64GDo7OPjT/PgblKug8T3uZC3IJyVBnl9twUZV3o/IQni3fUQj/NJIVBhOYHWbv3yfhJ+HmDSxx6i7HaFRG+ERo4jf0u7hI14Uw8B46dpgeDGLByXNg1aHyUL1g3vxiwAMoSIwVmL9aTppqcjgd4YvvXA1hGB4lPRatt4JxKnzZGGEKadqQE8rrGa8Zi3FZaRZ/PwDKidqf8oaK5HuMgNcq6wDz3EhRRMsPqz0ANDd+WxupOn8fPN9lGPwG9vPjK2d3ydtoVr95D5Cuyji6lPgE3IIPLH9wu4lrSGA8YZO7IFTqqZyBa0Ghb9hRLIvkwqgzb8SIJnGx1n0AMgcu+TdKAG3Rc4+IaOVnK4EduZVKoh/CPUtKXMLnED3c7UMLDTizoA3RkegctieIkFOei+QOTdx1NfnfCBI8uDQpphVUl5ZFkvTvQWgFTD+l4oax6Gv2INoze6Sci/7+//Dnx/f//7+lqaJKCcTWIjtfWi2HredJ3v92WZ+FmWrXa7TcViNh6PHSeKIvfw/cyV/Yacl2fizzpx+NFjovTJWU1fBEEQBEEQBEEQBEEQBEEQBEEQBEEQBEEQ5A/wP+/jo84fd5gxAAAAAElFTkSuQmCC;" vertex="1" parent="1">
          <mxGeometry x="130" y="245.5" width="99" height="99" as="geometry" />
        </mxCell>
        <mxCell id="ee6hzXKFvY82W5kVaRLl-7" value="" style="shape=image;verticalLabelPosition=bottom;labelBackgroundColor=default;verticalAlign=top;aspect=fixed;imageAspect=0;image=data:image/jpeg,/9j/4AAQSkZJRgABAQAAAQABAAD/2wCEAAkGBxAQEA8PEBAQDxIQDQ0SFxAPEBMQFQ8VFREWFhUSExcZHCggGBolGxMWITEiJjUrLi4wFx8zODMtNygtLisBCgoKDg0OFxAQGi8mICUvListLS0tMC8tKy01LzUtLTUtLS0tLS0vLS0tLS0tLS0tLS0tLS0tLS0tLS0tLS0tLf/AABEIAOEA4QMBEQACEQEDEQH/xAAcAAEBAAMBAQEBAAAAAAAAAAAAAQUGBwQDAgj/xABJEAACAQEDBQcPCwQCAwAAAAAAAQIDBAURBiExQVEHEhVhcZGSExciMjNCUlSBobHB0dLhFiM1U2Jyc4KTstMURLPCdKJDZPD/xAAbAQEBAAMBAQEAAAAAAAAAAAAAAQMEBQYCB//EADURAQABAgMCCwkBAQADAAAAAAABAgMEEVEUMQUSFSEzQVKBkaHwEyIyYXGxwdHhNFMjQvH/2gAMAwEAAhEDEQA/AO4gAAAAAAAAJKSSbbSSWLbzJAa7eWW9go4rqvVpLvaC3/8A27XzmenDXKurL6sFWJt09ef0a7a907VSsv5qtXD/AKxT9JnjB6ywTjNIYqvujW6Xaxs8OSnJvzyMkYS383xOKufJ4qmXN4v/AM6j92lT9cT6jDW9HxOJuavhLLG8X/dT8kaa9ET69hb0T29zUWWN4r+7n0ab/wBSewt6L7e5q+1PLm8Y/wBxvvvUqXuknD29FjEXNXso7o1vj2ys8/vU5L9skfE4Wj5vuMVX8mUsm6g8Uq1lWGuVKrn8kZL1mOcJpL7jF6w2m5ssLFamowq9TqPRTrLeSb2LVJ8jZgrsV0b4bFF+irdLPmFlAAAAAAAAAAAAAAAAAAB473vKnZaM69V4RgtC0ybzKMeNs+6KJrq4sPiuuKKc5ccyhyltFtk+qS3lPHsaMH2KWrfeE+N+TA6luzTbjm36uXdvVXN+7RhjKxowBFQCACAwIFGBGBueSGXNSzuNG1SlVoPBKbxlOjx46ZR4tK1bDVvYeKuene2rWImnmq3OsU5qSUotSjJJpp4pprFNPWjnt9+gAAAAAAAAAAAAAAAADmu6vb26lCzJ5owdWS2uTcY8yjLpHQwdHNNXc0MZXzxT3tBZuNJ0HJHISFSlC0WvfNVEpRoxk4di9EptZ8XpwWGHo0r2KmJ4tDes4aJjjVtgtuQdgqRajSdGWGadOpPFeSTaflRgpxNyJ3s1WGtz1OX5QXPUsVeVCpnzKUZpYKpB44SWzQ01tR0LdyK6c4aFy3NFWUsYfb4QAQGBAowIAIrpm5VfblGdim8eprqlPHwMcJQ5E2mvvPYaOKt5e9Ddwtefuy6CajbAAAAAAAAAAAAAAAAHH90ieN4VF4NKiv8Arj/sdTC9HDl4rpJawsMVjoxz8ms2Gu/oWm00nHDBpYYaMNWBw3cfoDm265KO/si7/eV2/utwwx8qfnN7B55VNHGZZ0ufG600AEBgQKMCACKz2QddwvGytd9OcHxqVOS9OD8hhvxnbllsTlch285jpgAAAAAAAAAAAAAAADjm6L9I1/u0P8cTq4XoocvFdJLWmZ2u3jJPLv8Ap6cbPaYynCCShUhnlCK0RknpS1NZ+I1L2G408aluWcTxY4tTYLbui2KEW6aq1pYZoqDprH7UpaFyYmCnCVzPPzM1WLoiObnc0vq9alrrSr1Wt9LBJLRCK0RjxZ3zs3qKIopyho11zXVxpeA+3ygAgMCBRgQARWZyL+kLH+Mv2sxXujlls9JDuhy3TAAAAAAAAAAAAAAAAHHN0X6Rr/dof44nVwvRQ5eK6SWtMztcCowBFQCACAwIFGBABFZnIv6Qsf4y/azFe6OWWz0kO6HLdMAAAAAAAAAAAAAAAAazfeRNmtdaVoqVK8ZTUE1TlTUexiksMYN6jYt4mqinixENe5hqa6uNMy8PW1sf11q6dL+M+9sr0j13vjY6NZ9dydbSx/XWrp0v4xtlekeu82OjWfXcdbSx/XWrp0v4xtlekeu82OjWfXcdbSx/XWrp0v4xtlekeu82OjWfXcdbOx/XWrp0v4xtlekeu82OjWfXcdbOx/XWrp0v4xtlekeu9dko1n13OW2mmoznFaIznFY6cFJrOb8TnGbQmMpfNhECjAgAiszkX9IWP8ZftZivdHLLZ6SHdDlumAAAAAAAAAAGEv7Kmy2PsaknOph3GnhKXFvtUVy+czWrFdzduYbt+i3v3tIvDdGtU21Rp0qMdrTqy53gvMblODojfObTqxlc/DGTEzyyvF/3UvJTpL0QMuzWuz92LaLva+z8/LC8fGp9Cn7o2e12TaLvaT5YXj41PoU/dGz2uybRd7R8sLx8an0KfujZ7XZXaLvaPlhePjU+hT90mz29DaLvaT5YXj41PoU/dGz29D29ztHyxvHxqfQp+6Nnt6Ht7naPljePjU+hT90ewt6L7e5qnyxvHxqfQpe6PYW9D29zU+WV4+NT6FL3SbPb0Pb3NWDnJtuTztttva28WzKxvywiBRgQARWZyL+kLH+Mv2sxXujlls9JDtF61ZQp4xeD3yWJ5rhS9Xascaicpzh28NRTVXlUw/CFbw3zL2HnuUsV258I/Tf2e1onCNbw3zL2E5SxXbnwj9Ls9rsrG8qy7/nUfYWOE8VE/H5R+knDWtHrs186qkfzR9aOjh+G5zyvR3x+v14MFzBddEsvCakk0009aO/RXTXTFVM5xLQmJicpfo+kAAGl5dZWuz42azv55pb6enqKehL7bXMuVG5hsPx/eq3fdp4nEcT3ad/2cwlJttttttttvFtvS29bOk5z8sCAAIRQCMgBUYAioBABAYECjAhACszkX9IWP8ZftZivdHLLZ6SHZL77l+ePrPLcM/5u+HdwfSdzAnlHURgAIQe66rb1OW9b7CT6L2nT4Mxs2LnEqn3Z8p1/bXxNnj05xvhsR65yQDH3/eastmq13g3CPYp99N5ornaMlqjj1xSx3a+JRNTh1etKcpTm3KU5OUpPS23i2dqIiIyhxpmZnOXzCDCoAAhFAIyAFRgCKgEAEBgQKMCEAKzORf0hY/xl+1mK90cstnpIdkvvuX54+s8twz/m74d3B9J3MCeUdRGAAhACtkuqvv6Sx0x7F+TR5sD2PBmI9th4md8c0+vo5GJt8S5OXXzvYdBrtA3VrbhGzWdPtpTqy/Kt7H90uY38DTzzU0cbV8NPe50dBz0IDCoAAhFAIyAFRgCKgEAEBgQKMCEAKz2QlFzvGypapzk+JRpyfs5zDfnK3LLYjO5Dr1+S+bS2zXoZ5XhqrKxEazH5d7Bx78/RgjyzpowAEIAVlLgq4TnDwo4+VP4+Y7fAd3K5Vb1jPw/++TSxtOdMVM4emc1yHdFtXVLfUjqpU6VPzb9+eZ1sJTlbj5uViqs7s/JrJstZCAwqAAIRQCMgBUYAioBABAYECgEIAV0bcoud/O22awTTpU8defGcl5Ul5JGliq91LcwtG+ptl91sZqC71Z+V/D0njeGb/Guxbj/13/Wf593ewdGVM1asYcVuIwAEIAV6Ltqb2rTf2sOfN6zc4PucTE25+eXjzMOIp41uqG0HtXGcMyirb+12qe201l5FNpeZI7dqMqKY+Ti3Zzrqn5scZGNCAwqAAIRQCMgBUYAioBABAYECgEZBsuSWSFW2yjOalSs6abqNYOovBp7fvaFx6DBdvRRzdbPaszXz9Trc5U7NSjCEVGMIqMILRmWY4eNxkWKJrq3zujWXWsWePPFjcwE5Ntt523i2eMqqmuqaqt8uxEREZQ/J8PpGAAhACkZYNPY0+YtNXFmKtOcmM4ybb1VbT3ntadXC4suCW2WNWq9tWo+eTPQ07ocCr4pfE+kQgMKgACEUA+lms1SrNU6UJVJvRGCcm+PBaj5qmIjOViJmcobZd251a6iTqzp2dPU31Sa5VHN5zWqxdEbuds04Sud/My8NzGHfWqbfFSS/2ZinGToyxg41XrY0vGqn6cfaTbJ0XY41OthS8aqfpx9o2ydDY41OthS8aqfpx9o2ydDZI1TrYUvGqn6cfaNsnRdkjU62FLxqp+nH2jbJ0NkjU619Lxqp+nH2ja50NkjVY7l9HXaqrXFCCJtc6GyRqzF2ZB2Cg1J03Xktdd79dFJR50Y6sRXV8mSnD0U/NmbVeEKa3scJNLBRjoXLsONi+E7Vnmp96rSPzPqW/aw1Ve/mhhK9aU5b6Txfo4keYv3671fHrnn9bnSooiiMofMwvtCKjAAQgBUZJGS/qmdva5ansocivCG9rVo+DWqrmm0folHwx9Hj6vil5z6fKEBhUAAQiszkxk7Vt1Tex7CnDDf1WsVH7K2yeww3r0W4597LatTcnm3OuXVdNnsVPe0oqCzb6bzym9spa3xcxyL+IiI49ycodW1ZiPdohK16+BHHjl7DhXuGeq1T3z+m9Rhe1LzO8qu1LyGnPCuJ1jwZYw1tOEqu1cyJyridY8F2a3ocJVdq6KHKuJ1jwNmt6HCVXauiicq4nWPBdmt6JwlV2roocq4nWPA2a3ocJ1dq6KHK2J1jwNlt6HCdXauiicrYnWPA2W3ojvOr4S6KE8K4ntR4Quy29Hwq2qpLtpt8WOC5kat3F37vNXXM/bwhkptUU7ofA1mQCgEIqMABCAFRkHt6gzqbPU1+PDmmVdDqdutcf/YnLp9n/sfpFic7dM/J4+9GVyqPmxRlYkIDCoAA+1hsk69WnRprGdSaivLrfEli3yHxVVFMTMvqmmapiIdwuq76Vis8aUM0accXLXOT0yfG36kcPEX4iKrle52rVrKIopY+1Wh1Hi9GpbDx+KxVeIr41W7qjR1rduKIyh8GazIEEIqAADIqAQARUAhACgEIqMABCAFEsXhteAimapyjrM8udtP9NE9zs9Die0ly/dNsu8tqqYZq1CEsftRbi/Mo853MHVnby0cfGU5XM9WpG21UIDCoAA3bcrsKnaK1drHqNNRjxSqN5+aLX5jSxlWVMU6tzB051TVo32+Kvaw/M/V6zyPDN74bUfWfx+XdwtG+pjDhN1GAIIRUAAGRUAgAioBCAFAIRUYACEAK9N2Ut9Vgtj33Nn9hu8HWvaYmiNOfw/rDiKuLbmWzntHGaTupWHf2elXSz0ari+KNTBY9KMec3cFXlVNOrTxtGdMVaOYnSc1CAwqAAOl7k0fmbS9brwXNBe1nOxvxQ6OC+Gfq2C9H84+SPoPE8KzniZ+kO7h+jh5DnNhGAIIRUAAGRUAgAioBCAFAIRUYACEAKzFwUO3qPX2K9L9XMeh4Dsc1V2fpH5/Hg5+Nr3U97MHoGg8152KNoo1aE+1qQlFvZis0lxp4PyH1RVNNUVQ+a6YqpmmXC7dZJ0KtSjUWE6c3F+TWuJrBrlO3TVFURMOLVTNMzEvOV8jCoAA6ZuT9wtP/ACI/44nNxvxR9HRwXwz9WfvPusuSPoPE8Kf6au77O9h+jh5Dns6MAQQioAAMioBABFQCEAKAQiowAEILCLbSWdtpJH1TTNdUU075JmIjOW1WWioQjBalzvW+c9xhrEWbVNuOr1LiXK+PVNT6md8AGpZcZK/1cer0UlXhHDDQq0V3reqS1Pycm1hr/E92rd9mriLHH96nf93KqtOUJShOLjKLacZJpxexp6DqZ5xnDmTGU5S/DAgADpm5N3C0/wDIX+OJzcb8UfR0cF8M/Vn7z7rLkj6DxPCn+mru+zvYfo4eQ57OjAEEIqAADIqAQARUAhACgEIqMABCDNXPYHH5yawfep6uNnpOCsBNH/muRz9UafNz8Vfz9ynvZY7rRAAADFXzk9ZbWvnqacksFUj2M1+ZaVxPFGW3ero+GWK5Zor+KGqWnczjj81apRWypTU3zxa9BsxjZ66WtOCjqqefrZT8bh+i/fPrbY7Pm+dinteX9OtlPxuH6L98bbHZ812Ke15NpyQyedgp1YSqqr1Sop4qG8w7FLDS9hrX73tJicmxYteziYzfS8+6y5I+g8dwp/pq7vs7OH6OHkOezowBBCKgAKySuhtJ79aPB+J2o4FqmInj+X9ac4uI6jgd+Guj8S8iVdvy/ptkaHAz8NdH4jkSrt+X9NsjQ4Gfhro/Ech1dvy/ptkaJwM/DXR+I5Dq7fl/TbI7JwM/DXR+JOQ6u35f022OycCv6xdH4jkOrt+X9NtjsnAr+sXR+I5Dq/6eX9XbY7KcCv6xdH4jkKr/AKeX9NtjsnAj+sXR+I5Cq/6eX9Ntjsqrk21OaPxLHAU9dzy/pOO0p83sst206bxwcntlnw5EdDDcGWLE8bLOdZ9ZNe5ia6+bdD2HRa4AAAAAAAAAAYS8+6y5I+g8rwp/pq7vs6WH6OHkOezowBBCKgAD3K9aizYQ5n7TqRwxiIjLKnwn9tbZKJ19dxwtU2Q5n7S8s4jSnwn9myUaz67jhepshzP2jlnEaU+E/s2SjWfXcnC9TZDmftJyziNKfCf2ux29Z9dxwvU2Q5pe0ctYjSnwn9mx29Z9dxwxU2Q5pe0ctYjSnwn9mx29Z9dz62W86kpxi1DBvDMnj6TPheFb929TRVFOUzpP7fFzC0U0TMZ+u5lz0LQAAAAAAAAAAAAAAAAGEvPusuSPoPK8Kf6au77Olh+jh5Dns6MAQQioAAMioBAIyKAQg9F391p/e9RuYD/Tb+rHf6Opsp7NxwAAAAAAAAAAAAAAABhLz7rLkj6DyvCn+mru+zpYfo4eQ57OjAEEIqAADIqAfax2d1JqOjW3sRs4TDTiLsUR3/Rju3OJTmz9GzQgsIxS48M75Wets4a1ajKimPy5dVyqqc5l8LZYIzTwSjLU1mx5TWxfB9q/TMxGVWv7ZLV+qiefc19rDNsPIzExOUurD73f3Wn971G3gP8ATb+rHf6Opsp7NxwAAAAAAAAAAAAAAABh72hhNPwo+df/ACPNcL25pvRVrH29Q38LVnRk8Jym0jAEEIqAADIqAe65ppVGn30Wl6TrcD3IpvzE9cczWxcTNGbOHp3NGxM5DVq8sZSktDnJ87PC3q4ruV1RumZnzdqiMqYh6Lpp41Y/Zxfmw9LNzgu3NeJpnTOfx+WLE1ZW5+bYT1zlAAAAAAAAAAAAAAAAD4Wyz9UjhrWdPjNTGYWMRb4vXvj6stq5xKs2BnBptNYNajyVdFVFU01RlMOnExMZw/LPlQghFQAAZFQBFtNNZmtZYqmmYmN5MZ80slSvhpYSjvuNPDzHZtcNV0xlcpz+cczUqwcTPuy+NrvKVRb1LexenB4t+U18Xwpcv08SI4sec977tYamic555eFLVpOZETM5Q2WfuyydTji+2lp4tiPW8G4PZ7edXxTv+XycvEXvaVc26HtOi1wAAAAAAAAAAAAAAAAA+Fqssaiz5nqktJqYrB28RHvb9WW3dqo3MRaLDOGrfLbHPzo89iOD71nnyzjWP03qL9FTzGgzIRUAAGRUAgBkV97PYqk9EcF4TzL4m3YwN+/8NPNrPNHr6MVd6ijfLMWKwRp5+2lterk2Ho8Hwdbw/vb6tf0593EVXObdD2HQYAAAAAAAAAAAAAAAAAAAAAHxq2aEu2inx6Hzo17uEs3fjpj8+LJTdrp3S8tS6YPtZNec59zga1PwVTHmzU4urrh553TPVKL5cV7TUr4Fux8NUT4x+2WMXT1w+buur9nnMM8EYn5eP8fe1Wzgur9nnHJGJ+Xj/Darb9xuieuUVyYsy08C3Z+KqI8Z/T5nGU9UPvTuiPfSk+TBG1b4Ftx8dUz5ftjqxlXVD1UbHTjogsdrzvzm/awOHtc9NMfefNgqvV1b5eg22IAAAAAAAAAAAAAAAAAAAAAAAAAAAAAAAAAAAAAAAAAAAAAP/9k=;" vertex="1" parent="1">
          <mxGeometry x="480" y="235.5" width="40" height="40" as="geometry" />
        </mxCell>
        <mxCell id="ee6hzXKFvY82W5kVaRLl-8" value="" style="shape=image;verticalLabelPosition=bottom;labelBackgroundColor=default;verticalAlign=top;aspect=fixed;imageAspect=0;image=data:image/png,iVBORw0KGgoAAAANSUhEUgAAAOEAAADhCAMAAAAJbSJIAAABXFBMVEXtGyT////sAADyFBycRlzh09nu+PzrAADuGSL3///5w8TvExzxAADW3OTvGCHES13sAAzUAADjAADvUVX+///sABPdAADdKiz+9PT/+fjvwsD3sLHziIrz1NPyd3ruNz397Oz2qar0lZf5ycr83+DZYWDstLTwW1/1nqD4u7zvQkfxa27vS0/uKzLxZGfk8vbuLTSYTGLW6vHNHDPJAADcGBnyfH+9J0HM2eLaLz3F4Oq0laTj9PnCJT26S1/cIjK2vszPR1avrbyxhJXWQ0O8O0/WCSOrPFfFX27lgIbJxtDIk56sJkPGfoypxNKnXHOYi56xlqW+r7y9XGyvcoTs5+rQwcrSU2CopLO7g5C3X3LWPkzKW2nMa3msPlO+09/MrribfpOIUWmmboPgkpm0s8HNoq2LjaPQk57csrmaZnzOOUq4cIGNTWbHdIKbmarVaWrWV1fAJibZg4Qq8KVgAAATAElEQVR4nO2d+1caufvHmVCZ0IwxIkGoomCp9VKXFsoqgqJSaYtr3XrtVl3bz6rbrn6tbf//c76ZC3Kba2ZA7PH9gweQy7xmkjyXJM/4hF9dvts+gI7rnvDu657w7uue8O7rnvDu657w7uue0As9fPjw2VC7nrHXu/DrnSUcST5FPgiAiPQkAgB96GlypKPH0CnCWGJqdEYUCYIQ+ozF/ouIKM6MTiViHTqSjhAm4mPjgFBsgtYsTAkYH4snOnEw3hPGpmcgcEBXpwRwZtr7K+k1YVIEIjZrl2aCmH066fEReUo4MisSTri6iDjr6dDjHWFqZBwg13yyEBgfSXl2XF4RJsYIcd73jIQJGfNq2PGG8OE4oJ7hqaJg3Bt/wAvC6Rng3eWrC4OZaQ+Ozj3h9HhH+FTGcfeMbgkTYx3jUxld90d3hLEx0ev+1yoqjrnzAlwRTo93mk9hdNdUXRCmZjl8Mx5hOuvCPPITJkVv7LsdIRe+HC9h6inoGp8s8JT3MnISPsbdu4CqEH7cTcIJwBs+8AuCia4RRufcRxA8InPR7hCOPO92C60JPeeIq5wTjnTUiTEXBs4RHROOdncMbRUY7TThzO10wbrITGcJn3XDTTMXfdZBwtTQ7QMyxCFHxt8J4eMu+mlmQqIT4++A8PHtjjGNAg4Q7RM+vgU/xkjQAaJtwl4CdIRom1C8bagWiV4TPuuNQaYuZNdo2CTsATvYKrt20R7hTO8BMkR73o0twtHbdtX0RWz5qHYIR3rHEDbLVqRhgzDVq4AM0Yb/Zk0Ynbu9eNBK2EbUb00424ujTE101j3hRO+2UVnW6SkrwkRvDqN1EauZGwvCaJcS9/zC1KIrWhD+3sudUBX93Q1hvLc7oSoQd0HYawGFvszDDFPC33otoNAX+o2XMHU3LiG7iGaujQlhbOZuXEJ2EWdMJsJNCL12uDFCflUII29TImYuuDFhwiN/FGLkp5Ikgfn5iwcvFK1fzFfYK8SPPGoleM7Y7hsTJt33QggRlSLZ12/erlX79jLpQE3pTH9f9WzjePmPkEj8pmts7clkFtyQMCG6/F2IKYKrm2cn6bDhrwuBxXcbWxgRv8v2AkXDi2hI6NKbQQTl/1zJmMDVVVw4f1OS/K7OqLFnY0SYcAMIqTTwvi9gh05TMLO9UyFueiU1uohGhC4uISah3WrQAZ4G2f9lSeJnNLyIBoRR7mEGU9+XjM7xBwOB6N5ev6K9aCAQ1DkHwbNV/usoGsQYBoTTvGEhqWwUm78qXFzcXyvMHqz/EQFMkvxHXFo/ePL5w/ZCsYUzuL0qcfZHYrA2TJ8w4eP7GSztppvoMvuFg3yWUCLvIGn4Tmb9EXu1kj8sby82UQbe5/g6CPTp90R9whG+RkorK43X42TjRYkQhI0tAfMGCKmsX600jkqZZb7LKOo7NvqEfPsJpJ16Bwz2F15L9syc7BZkL6t1yOBfXJkFiO0T8s2FSjs3PTCw/xE5GjMwlQ4/3Jyf8AfKc4r1Z9x0CWd5BjSyU+tPwe1D4tx+I1Ip3JwiLkSkm1rUI+RKcvuXa4e3sMxp1jDJbtfOUlni+ALdFLgeYZLDVMBcv3YBC6Kf4+BUYelIa6rBAY5vIUl7hDGecYaU1Q8Xj3hOfl20pJ2p/pzzo4BYJxLWI+RopLii2sHigNsMMkJV5ZvCRxxNHdgjnOI4SHqsRBHBN+5T5KikNtQqR2MgU7YIZziMkXSmHhXXKN96mFfK2cqUOPYw6kwLtxNyGUPQp7SsYy9S5DirGP/A3zzNtN0kthNyOd0qYfDAk7yLtKcQPuAZTdvd73bCcR6PSbuGV15eQx5CPG5NGHvOTyhUiQf9UCoI/ITP20bTNkK+yRiNMMzlijSLDKT5CXWmadoI+eYqNEIheMQbwNZE5jWvho+wfQ6jjfCpK0IhWHY1pwqlgVqEwUn41IowwZfKvyEUwttZfquPxM2bMJGP0AdaI33PCZnndgX4DD+SLk7qX9MpwlG+8b6RkMVPx9Dxxm5IweF2Y8aGk5C2LgVrJRzjs9nNhEK4/3NWcpCph4jgj/vNKWROQjRmQciZJ9UsfkMjS5/tlCi1MekCoZ9E/i70169fJuOCsG3Ou5WQc85Q89pebDS2s/TKpQ8S6jeONzGmBPm2zhcb5zeqoX43hMCckCdyaiAckNYXmiZjgouf/jzKVyRAKPL768V3/IgSIpH8s8+Fk+YMcno3IrkibI2gWgh5EhiNhMhPdxdaTmKwuLe//W334MXr9fV5WevrA/87uPpze7+v2Dp7k96oEAjcESY7S8iaJdxd0JlUCweDwUBaVYA91pt3y2wsyWNwRwm58ohNhMrc2vpawNbMYaOCK/+EVBvjjrA1p9hCyLuCoJFQ/hWpdLxtb3pUVbFaXpdqfoI7QohMCTlnZFoJlSR26ei8ZRTRV2Dx01UeNqTIXRK2IjU94575bSOUIeXE/tbm2ULaYLo0HA5kTk635iuEagYF+90Tts4GNxM+5F1Co0fokxOY8kIT+mBr88NZtdqX2FNHmkRfX/VsrfzmxZIkMTNSazdIyv/jd08IHnaRUBX0+ymQ5KnR3JKsrDxRKi+nafTrIBVXzwNncgR99wjrgliR3n9KH+X5tbW7Tmgs8qdyAB9ke/zrEgb7dityn3TntXWW8CN3Ior8W1wbIEqqDkfSPUvIPQXP+uHcHFWJ/FidmulNQiF4xbsgRoskoTSgTa/1KKEQ3s67ySdSWq6FGz1JGJaD83Shwlt9zy99lC9goHf7YXBZWU+T+Vwhzl14TMSdk7DSmXt4LB3Q1kRlCqvU2WoTv1Qq98t8gfNcL1uLAURKX9Q2Vv1rXiT2jpHFIdmjbeVjwf1VyWWM33GLj0lJW7sXqH55ACQ5bjBssXKeTZKWNlfU8IPxyVe+xwnlDkXLC1rAVHy3sXsxhwBhIQRCuCb20E8IIBXff+UVLdEWzBTm1YU4PU/ILg0R189v1ggHMv1fC+XPhxcPlrKq8n//PfTxc+E8vljU8gDBzPZRhWo99w4Q+uQ1XPCwsJ+px77hQCBQzKhKpwOBhqi4uHC+s9SwzvtuEMqREiG+AdYIzdZ7BzPvNv7z3azV9yTG72psAREbSMTXx+WzlWp/fbuFvOGib2Xl2/FyVg7yayMRkkq7dzLGZyE+kSJSZX5+flXVxfz8kpQjcsK/4V3ixXmx4zF+ystMVJOgvB64QbglqwdLRytFb2J8mjIh9C6b6PiwysqouiY3ok5mE73KCDuXEuMv/OVBjG+RER5yldUP/+cmxv90VPEixkdDpoQjrmZmWFjAu0oBX+SB2oD81F2MT0ZMCd3NPTHjfcwbG2o5Riitu4zxLeae3M2Qyg11u+Sm+rwHMb7FDGnU1Sx3WO5A6XKFd3WbX9pxH+ODqCmhu5UKwWWlC2V2K8T5WnFMwfKJ7K26jPGtVipwbsFvi/FLiDr5Jshi/Etl6ji45i7Gb1vY5umKISXGP1fi32K1vCTZjPERlSpHn5QlJsH9Awm7sviWK4Y4SyY1xPh0SY3xw4Fq+YUkMd/TsMVCefYNSPP/nO2pMX71wHWM37arxNN1bbUY31eL8cOZldOti5Ic49cDfC3MpwTQkm9r86u2Oy+c3vAixrdc18bp1bTG+NLyh71ajBvInHwtfP7t8DCfrSmfPxy6LJ9X6zF+ev9NBXgQ47d6NB6voG3wS/0SPPy20rBdNhgoptMsvl+Ug/xisSnGX/ywk/UoxrexgpZvZ55ejI+ob27gi2WMf747l6sFitD1apP27QhthNE5rq1/urGFvEVUGsy+Pp5gIb4c4wc1BdLpverK+fHOaxCpx/iY+laxO0LYXt7Ms90I4XBYP3pi46VSF4PF+AP/92D14GCZ/Z3PyhP51I/qASkCpeO9MzU+ZF8W7thuBD7nm11DmdBsRwmUF+wpi/fkv22nkaxvZMJqjC/tyV/Gt6MkaYNwmqcjSmrE8547PqSXytAjx/j+AeVhcYmjMQE7e2YEnqot9Ivy0b08b5BP/mUfD3wqYR8E6tni2YCI59pxPNqdh9bV0f+dyBk6kX+DfX9lJfZpSc3YCAWOw7C5O48rggLv1A9/rXDuAV59Q+XAEkqf1XMVyPI0Up3KER7tIfWhQ82En+T5okOsWHxECtpRFLi2OtvbQypM8MQXN4e2d5Xj3eqMpNXaWvgTntNM9cpEerZb3Qe2tY+Hqxdc29WxtPSh5v+k81xW2e5udT7vG1fe1T4f3L9wep9OFgIvfbipGpLOe+N1GxLy+aZY/FRfFXxyVbIPif2Sb6thw8xCiS9wsl81IsaX+oag3OBlFz8dL4mWtT+UcmDZj+8bNpSEz0pc4zFEunXp9GubcCYVIVlt2DXDYtrqxvJSiIX5sP2uwPJLLAoepK/frjQtIk5fctpUPWNoSMhd/hmB5hI8jPJkbXNLdkopoZSoYg8AQhANXBZOMs1LpIP8m/sMCkMbVFHizX2zM4l1ykQFM4sn2+ff/i2rev/t/PzdYqZ9mXtg+0LizSfrmgpjQv5KWKypljYXnJf6Ysps85kZVUa1vY2qmbkpXYqJ7+OZnX0IjQruX7oq2GZYxNSI0F0hdmbd0H9r/bpbf/ToAivlPyR3RZkNy7MbVhXk3R/UACkOXJ0tFC0oA5n99wdZyVGGXEf69YVMCT2ops+sAS3ljwpfTzKtddkEeUtbZvHT+XE+C2h7xO9YxhX2jat78k60NUtORgGUxa+3Ljc3T0+Tik6/bF5uvXiehYR5BJ5USTWwheaEKe/qxEIMkZ/emEPZIFK/Sbbf+Q8g40rCJlV2PSjR2i2Z3abUrFKyr9crzteEfXyVku9GRXZZplXZTSuW86496bL040JbhL9+1Xn+lXzdVMtKPWeEnLVcuqr2ei2OCBM9dT85PcG2SV9nhEK85+/CYn53Cxt30hnrbUTSWsrEOaHwWy/fiIWa3trCJmHK/qpabZuvmnWCtVUXsP7v+jtrO4KbU1S1l6HPns8KfdY37bImFB7btIpIHNQUEbEPRW6eaRMZKBLRavXX30kjg/WKS1isfSZCc7bW/9m5k6UNQps3tSLDI4mYqvjbCArFtSex1HVImXTJxYUnyskiuaT2zkRuJPa91gtQ5Fr7jHCdH7m20f9t3W3dDqEwZqMrklcJIRFXFRMeRUIpQXsmCPLRwlCSGR957o0OJ4So+q+3kUnhiYaC2eOY+vJk5NXptfVvUstRxjZhdM7S8ONISjjNRVS9igs/2fOX6rNrIc4uIn0lJCaFyRDEkbgwMqz+i4TqhOKpkHoVCckvhxAazlm2UmTvZvK2CG0gkmt23YCoaTgWfZkSBpV1CWQwmohgmev6ZUL4TsgTIc46n6o6IY4koj8GtVOEoHViwyagTULrepEsBr0WbxR5JPxghDlZgz+FRyEYYn8j4hMhMciu1c+bsUu8IUR5IZbS9ChkPZLq1IB0RSjELAZUXcLrhCwh9p3QfCz2IxQanBSSkSnh7c3Q1UyY0GRnlBFtAtomtLpzEGulk/VWWokqrTR0zU5NfPKViBny6U+myXDs1RN2NbUcUFMrjUZ/RJSrnrMxT27rBp3OCC0Q8WBC+DkYCcmKDMeF00FGiMTvUfZIhOK1kHqpHVOcsZ8OhjRNCt+1R5GkEM9pjy0R7QM6ILRAJK+iQuKRopq1GMRQZDZkcpDkosJ3kPv+5MmT72yY/RGrvfPR8KQQ1x5OvnwsxLTHby2aqQNAJ4TCiNnEHhTzkzWLnzqN+JnFH8SyHxAXHuVGFDMhZxNBPpoYrr2TnYifNb+ADT+Dpyn1cdR8ihQb3OfBPaHw8LnZL9NQbliV4rUNDytvppHhEnv9ZlKCDg/X35mjdLgmipkzV3vZDBA9Nw/q3RAyo2GGeLP/TqHB2lvlbc2N9yeR70hWeydW1vOpgup7bz5vDGh3FOUhFGLW3k2HheacATolZN7N7UbExKYnw08oRxq3l7qBtqIJt4TCBLytbD+GzgF5CIUEup3EBkUWaTXPCIXY2G1kisGYwzHGBaEgJEG3x1QEknyHykkoxMe7O6aScau8qNeEgjAKujfgYNC6I60bhMLj8S7ZDQjGbeTUOkDIeqNXd0o1FUJJNwfpilCIDnV8xEFgyKkX4yUhG3GedtZwgKe8I4xXhIIwBdxsTzcVJsB4nUz3CBnjnNs76+oKinPu+bwhFGLJOc/7IwJzSS4fplWeEMoZtSHOm1roClIwFPeEzzNCpviEszJ7xkKETrgdX+ryjpDZjolnwH3UQcGzCXf2oVleEjKlRkXg4p5PkABx1HrS05E8JmQ9MjUFgMixrhEiEYCplEe9ry7PCWXFp4d8jtbFYkSBb2jau87XoI4QMiXiv8+OA2Jj7TamBIzP/h7nid/tqFOEsqKJidEZ1vQIIVBPcgocgJnRiYSXI0urOkmoKTaVTOohkmRyyvNe164uEN6y7gnvvu4J777uCe++7gnvvu4J777uCe++fn3C/we4J0ff1gtnAwAAAABJRU5ErkJggg==;" vertex="1" parent="1">
          <mxGeometry x="293.71" y="390" width="90" height="90" as="geometry" />
        </mxCell>
        <mxCell id="ee6hzXKFvY82W5kVaRLl-9" value="" style="shape=image;verticalLabelPosition=bottom;labelBackgroundColor=default;verticalAlign=top;aspect=fixed;imageAspect=0;image=data:image/png,iVBORw0KGgoAAAANSUhEUgAAAOEAAADhCAMAAAAJbSJIAAAAgVBMVEVtsz////9rsjxwtUHO5cGAvVZlsDLD37NpsTi/27BqsjtnsDWQxW7z+e/6/fj9/vuKwWjo8+DW6cpztkeCvVx4uU2RxXKz152s05XQ5sRgrSmdy4Lb7NLL5Ly826mWx3lcrCCizYnu9um32aLj8Nqw1ph7ulKk0IiUxnaGv2LC369vNVP/AAANrUlEQVR4nO2da3vqKhCFLdHIJvVW4y1aq9Ftt/3/P/CorTUBAmsAjZ7H+dpGeYXAsBhmGi//d2vU3YCr25Pw8e1J+Pj2JHx8exI+vj0JH9+ehI9vT8LHtxCEg+2seQ2bbQcBWudNONiM0110Hdul4403pB9h/sWzhAvWuI4xwZOMf+W1EeaTXXwtuAJmvJv4MHoQttPk+nwnxiRt10CY7zNxE76jiWzv3I2uhLNWcjO+oyWt2W0J28PbdeC3iaHjSHUjbK9u8wYWja3cEJ0I36PbAx4Qo+atCPObD9FvEyOX6caFMKoHsNHgo9sQfsU1ATYa8dctCPO0ri48jNOUPk7JhL3pbRfCsiXT3tUJF7XMo2dj0eLqhK+8RsDDZPN6bcL3rFbARiN7vy5hp1/fNPNtot+5KmG7bsADItF5oxEORndAOKIJGzTCzzpXirMln9cjHNTnzRQtJnUihbA7rnelOBsfd69E2IzqZvsx0jaKQNitebG/GH8ldCKBcHIfb+HR4sk1CDusToe0bIzhyz5OOL2fLjx04jQ84dvwfrrw0InDt9CE3fm9TDPfxufoZIMSzoIAMsFDneNwVCFGCUPsexnf9T8+xi0RwrllUVjCZYBphkd/Foeh1dsu0xDubbwMSTgIoD4l++354zqvAX4wkWLuKUQYQn3i/4pL2DTAQAVVKYgwgPrEWEkHDKEVgKoURBjAIZX9rBB6D6ZKIYQBWsN2spQ7CjA5Q6oUQBhiRKkLdAhhGVKlAMIQ6lOiTO1BTj8QVcpOGER9iv8ov1sQQkCVshMGUZ+uRIioUlZCovokeJJwdRKBCAWP44TottpVKRshTX3iUX/+d/pvpDAChIzt18v25HVEWprsqpSNkKQ+xfvZ6fsWU7kn7IQiap8WlN5iTlqcrKqUhZCiPrF4fl70eousjGglFKNfB6U7pcQiWVUpCyFBfRKlqXtW/qONkI2KHthbizBSbaqUmZCgPvG05GD0pqVG2giTv6U/DnaEoWNRpcyEuPrEZeGkrOvYCFeSUzfo44PHokoZCXH1iafyD9kt+XoWQqaEkXQ+YESLKmUixNUn3leXpY/iwxZCPlYe7/RhT8OsSpkIYfWJtzTrLolwrj5PGKhGVcpEiO57xVDnWPwjEKqj9GCdMdqLRlXKQIiqT/r3YJBSZppMN87w+DmTKlVNCKtPXBuK9V562kaob+ICDbM2qVKVhLD6pG/coEUiZLut7lOaWBOMqlQlIao+JWPdZ3f65VnK6rXpZuMX3KcyqFKVhKBDKna6luVjqWV2z5u3dL3YQ3ca1apUFSGoPrFIN1E3udwuYPcktO/zAHU6KlWpCkJUfUp0HlNb3QIjO2CWTDQDfgnOd5WqVAUhqD6xTNOmdsNxj6+dL7p9cJxWqVJ6QlR9SjRjdJNpxhWo08RztSNQGaVKldITguqTziFsa19gVImKNe7bGkSsUKW0hODPpnNmdEOUQKhbXWE5U69K6QhR9SlZK482K7wQXE3UzKioJK1XpXSEqPoUK2HleZWbgBOyobJ2d/YgolaV0hCi6pM67rsfVe8vQRHmO6VF6B5Aq0ppCEFPiUXKsK9+kqJ5a2YbdKeoU6VUQlR9StbyD7aofpJCyIbKYNug7qlGlVIJUfVJHfRp9egmnVtwxT0ZoJtxjSqlEKLqE1f2FEuDK0s7mVEGW3cNbuU0C5hMCKtPysJlvC1EPHvK5E6coYcLqhMiE8Lq00r+pD+mJ4mEkkB8vHWMChqKKiUTogNe2Y/lxoN5IqG65YcPxRVVSiKEY59ieTtmfpJ6QppspH9fwAdS8utTJsRjn7i8GJo7n0ooFA0dFk9lVapEiMc+KS900/wbk0+5lS37B3xWI+0yS4R47JMSW7E2N4BMKPbS/zfxc4yyKlUi3MO/k7zc2+Y6eqSCrBEP8FNTXvp1ioR47BOTFVibsEknjKW5pvOKI5aGeIEQ3qQcxpDk0FhfYDoh/3ihfUWxefvCPFUgNC7Z0teviT8wnVDIuT7+EMJeeOHrLoSwMtlQb43ntt53iBgaSs7JbAg37+CeXt6iC+GcEPsUy0fatjfYgTCRHlnsCLFEyWWP+UtIin3KpInmr+3XcSGUxFPcNT194W8LfwnxFfVgK6m5Vt3DgZCPy25NlzCZFieqM+GCEtGqeLfWhx0IWUuaakh9cAnQORNuKBGIrCU117qQuhDKmUwsbpNkv777DyFhLWxoXKqV7QmX6Evyyy61sVMiHJCe5pKOOLhGHyqExLjpZFAifCdFkd6GMJYWRGLc9HkH+0NIeotvRSi5FbRe+J1NfwhJr+GtCKUDQSLhebL4IWyRYo/phIoqcf0+PE/4P4Qr0sN0wvKtp6PZ3wvP9/DsltyIkCmBYXY/33Mu9SKkr4eNhH7vyW899COk+zSH9pYU0IF9o+Dp08iEtOt3dL/02O+FLsmB1cnPL7000mkuVfYWyJeL9HdTCSVE89tbKHMpMWtJJv280PmeyPpveaeTb+cx0la//aGy4k9ob3EmnbWDmjuPo3F/F4OH6JKTsKXs8RuXue2H0CpDlE3RadD3mAn4XpOi0xBzx2RvJULzyZFiitb2jzjP2c1La2sUpuIfQmJSCFkvpW2gIfPRS0/Pn09Wznv8NolQ1byDpx/y0byPxs9++5mQtsknn1vQzePc4mgX2ftXa6PlhVDOnkJnxBSy24SfPZ3sck56UYRJ6ceV80P8jBYz5fzwk/YaJb8PXghnJLVNCYhqBR2mHmfAJysEvl4IadOpco5P3J/aWijvmLekMVIcYoWzJ1KeJDUWI2TyXTUWg+R0leKGiiekpFxXSjzNe0DC2D2e5vR4MfarSEjKV6akZSauN+YPd46JOlo5fq90jk/JOafGtYVLT6vEtUl3bkmPlwhJeQPVuyTwbTqLecQmnh4vx9GWI4Yozhefym/iNkRGFu09HDS+9GSSv1UmpGRQYJES5r0M0onxWv5c0mIox7NLcW2Uk2A1zruHhoEaW+ge530y+U6CHJtIyWSizHgvHf+qCUK9iUiapZXfXSakZKPRXOta+BYPYky9g0ZJAaTeDVKioAkfp7sz45tA0ufOzNHU+10KISUrFH7vCf5EzXUC9N7T0TR39NRYfcrCDd9dAy3W3ECkhcGoY1xzo4SSsEUJOT/2outAZbpL0/D9w6Pp7spqCCkZ9pK1+qP33iDFVzEW6fKwoHdIvz9Bc99ZQ0hStbSXqRZDh3WRc90lUEq0nf7Ouu7uGiXTpRjprmB35ppsWEZjXFt3rEep2qPPO6C9YUnxIXhfdx+/txnSBFgx1V1U7pG2rPrcB/pbshRXviKL0YJQeU7E0UKbE+GdwFeV/0NPSMoarGYM/LblHhuqLEkrPqHqRqreKnK46AlJqlRltbD8zwhw4uLdpCJtB2lXWJmHp+I+Psn50uenOTG2o4wbBivjcbypKuGU41cHGoZcSlVZI0ivuDBkamqu941ECykS0fqozkA6wNMoHa0yH1YVIS2LPm8ZklHlzemryErZFJlIYpFOm9qULT8NoAFW5zSrzG1Cq4TAKwfq0Xqd/O3v6yhbZSdbrUav02aemxIdE3J9naw6L10lIbGahWmgXmxwNKR0GtUrMuQWrM6iRDwSdK6iqQWkZoU15IesJqRWlREMTJJut3cqoCnHpyHXF7UyEIs/QtTRPizGZCnElKfVlK+NnF83ScmV7VTbyhmYgO815do1EdJzJPOhLk0QyTY78ubSnC/ZmBmSnueaxdHWh3Hbd9BAzDmvjYQuucpFNHV+GzsT2p7r5xvNecvN+UtdjpMY3y0pNbUK39Z3UlstuectWXadagawWEyIRQoP/TeL3EqZ2+oHWAgd6z6wOF0afE7V8q++Yyl6aw0IC6Fz7Q7Bd2t46dhOU/32AzBrHQ9bPm/3+issycRmax2tncFkmDnzAbVYrFnnfWrosDjZb5rVy0dv0NyMY6/DHHs9HXvlAL8KLCJhu/F6+aYexC2+puM0SvzCNoGaSHZC71pW7FgRIFuN0vl8+tVutyfzz/7osE0kVwnQGFDXyk4Yqh7ZsV5XEh8sCVa3C6pNBtQoua+ackWD6sshlXTuqi5g0aAagQjhPdV2LBpW5xGq93RH9TmLhtXqhAjvp8Zq0cB6qxDh/dTJLRpYMxcjvJdax0VD6x5jhPdSr7poaO1qkPA+ao4XDa4/jhLeQ934ouE15FHCINXXAhpScY1IGKKCXjiDquYRCQMGOQcwqPIhlTBEJctQhlWvJBMGqEYayMAKpGTCEBVlwxhYRZZMGKQqcAhDKwHTCYNUdg5gaDVnB8Ig1bm9Da7I7UIYpsK6p8FV1V0IQ6lSXoCA+uROeAeqFKQ+eRDWr0pB6pMPYd2qFKY++RDWrUph6pMXYb2qFKg+eRHWq0qB6pMfYZ2qFKo++RG+5PW9iWplm6sQ1jfZyNlArkbY/VcPYkz0ZtwJyeGtgQA/yCEszoQvHUJB4mCAuPgUgPBYwvG2vg2Lxw6zjAfhS28Z3XLR4NHSNSDQlfCw8t9wpMZ9+krvT/jSmXhE+hBMJBk9TC4I4ZFxzx3D0VBjCd/78HkSHq/9rFtZwgW7hgmeZK1123GGCUR4WP7z7eYzbV3D0s/NNncLVQ1JePf2JHx8exI+vj0JH9+ehI9vT8LHtyfh49uT8PHtP5pS9bmN6bs5AAAAAElFTkSuQmCC;" vertex="1" parent="1">
          <mxGeometry x="300" y="255.5" width="79" height="79" as="geometry" />
        </mxCell>
        <mxCell id="ee6hzXKFvY82W5kVaRLl-11" value="" style="curved=1;endArrow=none;html=1;rounded=0;entryX=0;entryY=0;entryDx=0;entryDy=0;exitX=0.75;exitY=0;exitDx=0;exitDy=0;endFill=0;startArrow=classic;startFill=1;" edge="1" parent="1" source="ee6hzXKFvY82W5kVaRLl-9" target="ee6hzXKFvY82W5kVaRLl-7">
          <mxGeometry width="50" height="50" relative="1" as="geometry">
            <mxPoint x="370" y="265" as="sourcePoint" />
            <mxPoint x="420" y="215" as="targetPoint" />
            <Array as="points">
              <mxPoint x="360" y="235" />
              <mxPoint x="430" y="210" />
            </Array>
          </mxGeometry>
        </mxCell>
        <mxCell id="ee6hzXKFvY82W5kVaRLl-13" value="현장 장비" style="ellipse;shape=cloud;whiteSpace=wrap;html=1;" vertex="1" parent="1">
          <mxGeometry x="420" y="290" width="120" height="80" as="geometry" />
        </mxCell>
        <mxCell id="ee6hzXKFvY82W5kVaRLl-14" value="" style="endArrow=classic;startArrow=classic;html=1;rounded=0;entryX=0.5;entryY=1;entryDx=0;entryDy=0;exitX=0.625;exitY=0.2;exitDx=0;exitDy=0;exitPerimeter=0;" edge="1" parent="1" source="ee6hzXKFvY82W5kVaRLl-13" target="ee6hzXKFvY82W5kVaRLl-7">
          <mxGeometry width="50" height="50" relative="1" as="geometry">
            <mxPoint x="360" y="340" as="sourcePoint" />
            <mxPoint x="410" y="290" as="targetPoint" />
          </mxGeometry>
        </mxCell>
        <mxCell id="ee6hzXKFvY82W5kVaRLl-17" value="" style="endArrow=classic;html=1;rounded=0;" edge="1" parent="1">
          <mxGeometry width="50" height="50" relative="1" as="geometry">
            <mxPoint x="243.71" y="294.5" as="sourcePoint" />
            <mxPoint x="293.71" y="294.5" as="targetPoint" />
            <Array as="points">
              <mxPoint x="283.71" y="294.5" />
            </Array>
          </mxGeometry>
        </mxCell>
        <mxCell id="ee6hzXKFvY82W5kVaRLl-19" value="" style="endArrow=classic;html=1;rounded=0;" edge="1" parent="1">
          <mxGeometry width="50" height="50" relative="1" as="geometry">
            <mxPoint x="339" y="344.5" as="sourcePoint" />
            <mxPoint x="339" y="384.5" as="targetPoint" />
          </mxGeometry>
        </mxCell>
        <mxCell id="ee6hzXKFvY82W5kVaRLl-22" value="" style="endArrow=classic;html=1;rounded=0;" edge="1" parent="1">
          <mxGeometry width="50" height="50" relative="1" as="geometry">
            <mxPoint x="341" y="250" as="sourcePoint" />
            <mxPoint x="341" y="200" as="targetPoint" />
          </mxGeometry>
        </mxCell>
      </root>
    </mxGraphModel>
  </diagram>
</mxfile>
